

<svg id="mapa" xmlns="http://www.w3.org/2000/svg" 
     width="1fr" height="1fr" 
     viewBox="-300 90 1430 968" >
<a  class="state" >
  <path id="Sabana Hoyos" class ="zona5" 
        fill="#315C2B" stroke="ivory" stroke-width="4" onclick="showTooltip(evt, id);" onchange ="hideTooltip();"
        d="M 669.00,690.00
           C 670.95,696.24 674.19,695.94 680.00,696.00
             680.00,696.00 681.60,700.57 681.60,700.57
             681.60,700.57 695.00,707.86 695.00,707.86
             695.00,707.86 701.00,709.00 701.00,709.00
             701.87,705.43 701.78,698.74 703.74,696.43
             706.61,693.05 709.87,695.21 715.00,691.97
             724.02,686.28 722.97,683.53 727.83,676.43
             728.61,675.28 729.32,674.57 729.44,673.08
             729.56,671.56 725.37,664.20 732.04,662.87
             733.97,662.49 735.91,663.70 738.00,663.93
             738.00,663.93 743.00,663.93 743.00,663.93
             745.75,664.33 748.03,666.38 751.00,667.17
             754.14,667.99 755.98,667.16 759.00,667.17
             762.06,667.35 764.85,668.39 767.89,667.17
             773.90,664.57 769.23,659.41 767.00,656.00
             774.47,652.78 773.11,648.11 772.62,641.00
             772.09,633.40 776.42,633.98 777.52,629.91
             778.51,626.26 774.62,624.99 775.54,620.00
             776.84,612.98 783.12,608.71 784.19,604.00
             785.28,599.24 780.73,596.99 781.50,593.58
             782.30,590.08 791.46,581.65 793.78,577.83
             793.78,577.83 796.92,571.00 796.92,571.00
             798.86,567.63 801.28,566.03 802.43,562.00
             802.43,562.00 804.17,538.00 804.17,538.00
             804.57,533.76 806.74,523.74 805.69,520.14
             804.73,516.86 800.97,516.39 798.00,516.30
             798.00,516.30 793.00,516.30 793.00,516.30
             793.00,516.30 788.00,515.56 788.00,515.56
             784.60,515.33 781.69,516.99 778.74,512.88
             774.13,506.46 778.96,494.58 780.71,488.00
             783.56,477.32 780.96,476.22 779.93,467.00
             779.46,462.86 781.67,458.80 780.68,455.11
             779.52,450.74 768.69,448.52 769.32,441.46
             769.51,439.34 771.86,437.89 772.75,435.83
             774.15,432.59 769.86,421.23 767.42,418.81
             765.55,416.95 762.27,416.53 760.74,412.90
             759.25,409.36 760.67,403.66 761.40,400.00
             761.40,400.00 766.80,374.00 766.80,374.00
             767.63,369.83 767.82,363.64 773.04,362.85
             775.80,362.44 780.57,364.03 783.16,361.40
             787.28,357.24 788.39,344.68 789.66,339.00
             789.66,339.00 792.54,328.00 792.54,328.00
             792.54,328.00 793.28,320.00 793.28,320.00
             793.28,320.00 798.28,277.00 798.28,277.00
             798.28,277.00 800.87,256.00 800.87,256.00
             801.17,253.97 801.79,250.17 800.87,248.43
             799.64,246.63 797.87,246.48 795.98,246.91
             793.76,247.41 790.50,249.79 786.00,249.86
             781.52,249.92 779.73,247.69 775.00,248.34
             767.01,249.46 756.06,258.86 745.00,256.73
             740.91,255.94 736.92,252.59 733.00,250.75
             720.70,244.96 711.07,239.17 697.00,239.00
             691.14,238.94 679.00,239.09 674.09,242.09
             669.46,244.91 666.67,251.30 661.00,252.53
             657.39,253.31 653.42,250.87 650.00,249.75
             644.18,247.84 639.14,246.85 633.00,247.02
             628.97,247.13 626.68,247.78 623.00,249.44
             612.23,254.32 611.33,262.63 609.59,273.00
             607.07,287.98 606.38,292.73 607.83,308.00
             607.83,308.00 608.58,322.00 608.58,322.00
             609.45,328.64 608.39,339.14 612.36,344.77
             613.32,346.13 614.35,347.10 616.10,347.15
             620.45,347.30 631.47,338.38 636.00,336.42
             640.26,334.57 645.24,334.63 646.53,340.02
             647.21,342.84 645.42,349.88 644.80,353.00
             644.80,353.00 641.01,379.00 641.01,379.00
             641.01,379.00 644.91,415.00 644.91,415.00
             644.91,415.00 642.93,435.00 642.93,435.00
             642.93,435.00 642.93,443.00 642.93,443.00
             642.93,443.00 640.46,453.00 640.46,453.00
             640.46,453.00 634.44,488.00 634.44,488.00
             633.26,495.49 631.71,503.42 632.04,511.00
             632.35,518.28 634.87,526.48 629.57,532.89
             626.68,536.40 611.81,542.95 607.00,544.90
             607.00,544.90 587.00,554.37 587.00,554.37
             581.94,555.81 558.06,557.93 552.00,558.00
             552.00,558.00 542.00,558.91 542.00,558.91
             542.00,558.91 498.00,563.09 498.00,563.09
             494.75,563.33 479.54,564.31 477.83,565.98
             475.93,567.83 477.63,571.89 478.34,574.00
             482.79,587.04 482.46,583.72 484.58,598.00
             484.58,598.00 486.70,610.00 486.70,610.00
             486.70,610.00 487.47,618.00 487.47,618.00
             487.47,618.00 490.08,627.00 490.08,627.00
             490.08,627.00 491.52,635.00 491.52,635.00
             491.52,635.00 494.49,644.00 494.49,644.00
             494.49,644.00 499.92,673.00 499.92,673.00
             500.98,683.10 502.54,701.26 512.29,706.83
             515.44,708.62 518.58,707.39 521.96,709.17
             524.85,710.70 525.84,712.97 527.59,714.41
             528.82,715.42 539.41,719.50 541.00,719.64
             546.45,720.11 552.65,714.88 555.42,715.29
             560.76,716.08 560.07,723.35 568.00,722.70
             573.55,722.24 575.02,720.87 579.00,719.96
             583.31,718.98 586.36,720.61 591.89,716.93
             596.49,713.87 595.32,710.18 599.14,708.60
             603.01,707.00 606.54,709.95 612.00,709.53
             618.08,709.07 625.34,708.83 631.00,706.44
             634.87,704.81 637.10,701.46 641.00,699.30
             641.00,699.30 651.58,694.16 651.58,694.16
             653.39,693.84 655.12,694.78 658.00,694.16
             662.44,693.08 662.48,690.99 669.00,690.00 Z" />
            <text filter="url(#bg-text)" class="label_pueblo" x="170" y="0" >Zona 5 - <tspan>Sabana Hoyos</tspan></text>
            <!-- <text class="label_pueblo" x="170" y="890" >Pos: <tspan></tspan> </text>             
            <text class="label_pueblo" x="200" y="-75" > Cantidad total <tspan></tspan> </text> -->
</a>
<a  class="state" >
  <path id="Carrochales" class ="zona4"
        fill="#D8A629" stroke="ivory" stroke-width="4" onclick="showTooltip(evt, id);" onchange ="hideTooltip();"
        d="M 783.00,247.00
           C 783.00,242.68 781.87,235.77 786.15,233.31
             791.96,229.97 801.52,234.84 803.77,228.85
             805.05,225.47 805.79,214.08 806.09,210.00
             806.09,210.00 808.17,191.00 808.17,191.00
             808.17,191.00 810.83,173.00 810.83,173.00
             810.83,173.00 812.29,153.00 812.29,153.00
             814.11,138.18 815.00,140.73 815.00,124.00
             811.78,125.57 809.23,128.30 805.99,128.74
             796.47,130.01 789.17,119.26 785.52,112.00
             781.60,104.20 769.15,84.00 762.00,79.93
             758.90,78.17 755.46,78.04 752.00,78.00
             752.00,78.00 714.00,78.00 714.00,78.00
             708.64,77.97 690.11,74.87 685.00,73.22
             681.77,72.17 676.45,68.39 673.42,69.62
             671.45,70.41 670.61,73.15 670.04,75.00
             668.60,79.73 668.01,87.02 668.00,92.00
             667.97,113.06 674.36,133.31 677.43,154.00
             678.65,161.04 676.75,162.43 677.43,168.00
             677.43,168.00 680.39,184.00 680.39,184.00
             680.39,184.00 683.75,204.00 683.75,204.00
             683.75,204.00 686.23,221.00 686.23,221.00
             685.86,225.47 677.58,236.26 687.06,237.95
             687.06,237.95 692.00,237.95 692.00,237.95
             692.00,237.95 697.00,237.95 697.00,237.95
             712.04,238.18 720.08,243.57 733.00,249.74
             736.87,251.60 740.96,254.95 745.00,255.73
             754.36,257.53 762.60,251.39 771.00,248.44
             775.77,246.76 778.09,247.00 783.00,247.00 Z" />
            <text filter="url(#bg-text)" class="label_pueblo" x="170" y="0" >Zona 4 - <tspan>Carrochales</tspan></text>
            <!-- <text class="label_pueblo" x="170" y="890" >Pos: <tspan></tspan> </text>             
            <text class="label_pueblo" x="200" y="-75" > Cantidad total <tspan></tspan> </text> -->
</a>
<a  class="state" >
  <path id="Factor" class ="zona4"
        fill="#D8A629" stroke="ivory" stroke-width="4" onclick="showTooltip(evt, id);" onchange ="hideTooltip();"
        d="M 666.94,66.57
           C 657.07,67.41 647.96,68.44 639.00,73.35
             639.00,73.35 620.00,85.99 620.00,85.99
             616.80,87.28 612.46,87.01 609.00,87.00
             601.12,86.99 602.67,86.41 596.00,85.32
             596.00,85.32 589.00,84.68 589.00,84.68
             583.77,83.82 584.41,83.08 578.00,83.00
             578.00,83.00 556.00,83.72 556.00,83.72
             553.84,83.97 549.16,83.78 547.60,85.02
             544.66,87.35 546.90,96.42 546.99,100.00
             547.06,103.36 547.23,106.92 545.26,109.83
             543.54,112.38 540.69,113.84 539.64,117.01
             538.63,120.04 540.63,126.30 540.38,130.00
             540.14,133.45 538.36,135.74 537.55,139.00
             537.55,139.00 536.32,150.00 536.32,150.00
             536.07,153.31 536.70,154.85 537.04,158.00
             537.04,158.00 537.04,168.00 537.04,168.00
             537.82,174.89 540.11,187.76 539.41,194.00
             539.41,194.00 537.71,212.00 537.71,212.00
             537.71,212.00 536.17,222.00 536.17,222.00
             535.59,227.99 536.45,229.88 534.88,237.00
             533.66,242.54 528.55,248.40 533.43,253.61
             539.44,260.03 546.06,257.27 553.00,255.68
             565.02,252.92 571.63,251.86 584.00,252.00
             584.00,252.00 596.00,252.86 596.00,252.86
             596.00,252.86 607.00,249.96 607.00,249.96
             607.00,249.96 618.00,249.96 618.00,249.96
             623.44,248.83 625.49,246.22 633.00,246.02
             647.41,245.62 652.91,250.76 658.00,251.48
             665.81,252.59 668.40,244.48 674.04,241.09
             677.26,239.14 680.79,239.50 681.58,235.86
             681.64,234.47 680.98,232.61 681.58,230.00
             682.68,226.89 684.74,225.56 684.90,221.00
             684.90,221.00 681.80,201.00 681.80,201.00
             681.80,201.00 677.28,175.00 677.28,175.00
             673.97,158.91 677.82,163.86 676.38,155.00
             672.81,133.00 666.74,112.57 667.00,90.00
             667.05,86.30 667.86,79.58 668.68,76.00
             669.11,74.12 670.72,70.00 670.19,68.33
             669.62,66.51 668.37,66.79 666.94,66.57 Z" />
            <text filter="url(#bg-text)" class="label_pueblo" x="170" y="0" >Zona 4 - <tspan>Sabana Hoyos</tspan></text>
            <!-- <text class="label_pueblo" x="170" y="890" >Pos: <tspan></tspan> </text>             
            <text class="label_pueblo" x="200" y="-75" > Cantidad total <tspan></tspan> </text> -->
</a>
<a  class="state" >
  <path id="Arrozal" class ="zona3"
        fill="#093444" stroke="ivory" stroke-width="4" onclick="showTooltip(evt, id);" onchange ="hideTooltip();"
        d="M 513.00,387.64
           C 513.00,387.64 483.00,400.49 483.00,400.49
             483.00,400.49 474.00,405.89 474.00,405.89
             469.08,408.52 459.54,409.57 454.00,408.79
             440.40,406.88 428.94,394.72 414.00,392.78
             411.02,392.60 402.96,390.21 400.92,392.78
             399.60,394.38 400.42,397.96 400.92,400.00
             400.92,400.00 403.83,417.00 403.83,417.00
             405.25,431.60 404.92,422.72 408.28,432.00
             409.36,434.98 408.83,437.28 410.71,442.00
             410.71,442.00 421.22,467.00 421.22,467.00
             425.29,480.85 422.97,481.34 423.26,493.00
             423.48,502.06 421.23,511.19 416.50,518.99
             411.46,527.28 400.04,531.33 405.80,544.00
             405.80,544.00 409.78,551.00 409.78,551.00
             410.71,552.55 412.38,556.25 413.56,557.40
             415.96,559.22 422.01,557.97 425.00,557.40
             431.10,556.77 441.14,557.57 444.91,563.21
             450.53,571.58 441.61,582.37 442.42,586.86
             442.86,589.34 444.87,589.88 447.02,590.37
             447.02,590.37 464.00,591.99 464.00,591.99
             467.21,592.06 480.14,591.84 481.30,588.69
             482.41,585.65 477.14,574.62 476.03,571.00
             475.06,567.81 474.12,564.87 478.09,563.51
             479.98,562.86 483.79,563.04 486.00,562.83
             486.00,562.83 508.00,560.83 508.00,560.83
             508.00,560.83 545.00,557.00 545.00,557.00
             545.00,557.00 558.00,556.09 558.00,556.09
             558.00,556.09 587.00,553.35 587.00,553.35
             587.00,553.35 601.00,546.26 601.00,546.26
             601.00,546.26 611.00,542.17 611.00,542.17
             611.00,542.17 618.00,538.32 618.00,538.32
             628.18,533.42 632.65,532.13 631.91,519.00
             631.91,519.00 631.04,505.00 631.04,505.00
             631.04,505.00 635.46,472.00 635.46,472.00
             635.46,472.00 638.33,461.00 638.33,461.00
             638.33,461.00 639.30,453.00 639.30,453.00
             639.30,453.00 641.54,443.00 641.54,443.00
             641.54,443.00 643.91,415.00 643.91,415.00
             643.91,415.00 641.29,398.00 641.29,398.00
             640.93,395.73 641.13,392.73 638.69,391.61
             637.06,390.87 624.53,392.24 622.00,392.58
             609.66,394.22 597.54,397.14 585.00,397.00
             585.00,397.00 575.00,396.09 575.00,396.09
             564.02,395.34 552.84,395.61 542.00,393.34
             534.93,391.85 519.08,386.57 513.00,387.64 Z" />
            <text filter="url(#bg-text)" class="label_pueblo" x="170" y="0" >Zona 3 - <tspan>Arrozal</tspan></text>
            <!-- <text class="label_pueblo" x="170" y="890" >Pos: <tspan></tspan> </text> 
          <text class="label_pueblo" x="200" y="-75" > Cantidad total <tspan></tspan> </text> -->
</a>
<a  class="state" >
  <path id="Miraflores" class ="zona3"
        fill="#093444" stroke="ivory" stroke-width="4" onclick="showTooltip(evt, id);" onchange ="hideTooltip();"
        d="M 395.00,368.00
           C 395.09,372.21 397.31,385.51 399.93,388.40
             401.43,390.06 403.94,389.98 406.00,390.28
             406.00,390.28 420.00,393.09 420.00,393.09
             436.36,398.38 444.98,410.05 464.00,407.42
             466.28,407.11 468.82,406.97 471.00,406.24
             475.11,404.85 478.98,401.43 483.00,399.37
             483.00,399.37 504.00,390.19 504.00,390.19
             507.50,388.83 512.40,386.28 516.00,386.19
             516.00,386.19 544.00,392.54 544.00,392.54
             544.00,392.54 588.00,395.99 588.00,395.99
             588.00,395.99 625.00,391.07 625.00,391.07
             627.77,390.82 637.43,390.36 638.98,388.40
             640.50,386.48 639.89,378.87 640.17,376.00
             640.17,376.00 644.43,349.00 644.43,349.00
             645.23,345.84 646.90,340.31 644.43,337.86
             641.99,335.55 637.48,336.71 635.00,337.86
             630.66,340.16 618.84,349.87 614.21,347.72
             607.76,344.72 608.35,330.89 607.58,325.00
             607.58,325.00 606.91,312.00 606.91,312.00
             605.85,296.43 605.51,286.61 608.46,271.00
             610.98,257.61 613.56,257.90 615.00,251.00
             599.02,251.00 602.28,253.60 596.00,254.30
             596.00,254.30 577.00,253.00 577.00,253.00
             577.00,253.00 554.00,256.52 554.00,256.52
             550.20,257.34 547.09,259.06 543.00,258.86
             534.26,258.43 531.18,251.18 527.79,249.74
             523.32,247.84 515.52,251.76 512.04,254.53
             508.38,257.44 497.51,270.67 493.92,275.00
             483.93,287.03 468.55,306.90 460.46,320.00
             460.46,320.00 442.03,348.00 442.03,348.00
             436.19,356.28 429.15,365.58 419.00,368.78
             413.94,370.37 400.67,368.75 395.00,368.00 Z" />
            <text filter="url(#bg-text)" class="label_pueblo" x="170" y="0" >Zona 3 - <tspan>Miraflores</tspan></text>
            <!-- <text class="label_pueblo" x="170" y="890" >Pos: <tspan></tspan> </text> 
            <text class="label_pueblo" x="200" y="-75" > Cantidad total <tspan></tspan> </text> -->
</a>
<a  class="state" >
  <path id="Arenalejos" class ="zona3"
        fill="#093444" stroke="ivory" stroke-width="4" onclick="showTooltip(evt, id);" onchange ="hideTooltip();"
        d="M 371.00,313.00
           C 383.47,313.28 386.68,317.86 392.50,328.00
             394.74,331.91 397.40,335.22 397.40,340.00
             397.40,346.03 386.64,363.35 399.02,367.35
             400.93,367.97 403.01,367.97 405.00,368.00
             409.13,368.05 417.42,368.43 421.00,366.99
             432.96,362.21 445.60,341.74 452.54,331.00
             452.54,331.00 471.92,302.00 471.92,302.00
             471.92,302.00 486.77,283.00 486.77,283.00
             486.77,283.00 499.17,267.00 499.17,267.00
             502.98,262.76 510.48,254.06 515.00,251.39
             521.44,247.57 528.33,249.43 532.16,241.98
             532.87,240.62 533.65,238.61 533.64,237.06
             533.63,230.94 526.55,234.90 518.00,235.00
             518.00,235.00 512.00,235.00 512.00,235.00
             501.73,235.14 502.51,238.76 495.00,240.62
             495.00,240.62 479.00,242.51 479.00,242.51
             475.23,243.59 473.07,246.37 469.00,246.48
             469.00,246.48 455.00,244.18 455.00,244.18
             452.41,243.99 439.07,245.14 437.09,246.17
             434.14,247.71 433.60,249.83 428.00,252.69
             413.26,260.20 400.06,265.53 389.34,279.00
             384.64,284.91 387.37,285.78 383.68,293.00
             383.68,293.00 377.31,304.96 377.31,304.96
             374.90,308.41 373.19,308.74 371.00,313.00 Z" />
            <text filter="url(#bg-text)" class="label_pueblo" x="170" y="0" >Zona 3 - <tspan>Arenalejos</tspan></text>
            <!-- <text class="label_pueblo" x="170" y="890" >Pos: <tspan></tspan> </text> 
            <text class="label_pueblo" x="200" y="-75" > Cantidad total <tspan></tspan> </text> -->
</a>
<a  class="state" >
  <path id="Santana" class ="zona4"
        fill="#D8A629" stroke="ivory" stroke-width="4" onclick="showTooltip(evt, id);" onchange ="hideTooltip();"
        d="M 378.00,119.00
           C 375.23,123.87 368.14,137.75 368.29,143.00
             368.36,145.64 369.84,149.51 370.81,152.00
             372.03,155.13 373.34,158.31 375.53,160.90
             379.95,166.14 386.40,166.73 392.19,177.00
             394.59,181.26 394.83,186.42 396.48,190.96
             396.48,190.96 405.78,209.00 405.78,209.00
             405.78,209.00 414.38,220.35 414.38,220.35
             417.86,223.39 420.11,222.33 424.29,227.07
             424.29,227.07 431.69,235.04 431.69,235.04
             436.33,240.95 431.94,244.25 444.00,243.99
             444.00,243.99 455.00,243.18 455.00,243.18
             455.00,243.18 470.00,245.53 470.00,245.53
             473.45,245.13 475.40,242.57 479.00,241.51
             479.00,241.51 495.00,239.62 495.00,239.62
             502.52,237.89 502.09,234.14 512.00,234.00
             516.70,233.94 530.11,233.55 533.40,230.27
             535.41,228.27 534.92,224.62 535.04,222.00
             535.04,222.00 537.04,205.00 537.04,205.00
             537.04,205.00 538.49,192.00 538.49,192.00
             538.49,192.00 536.00,166.00 536.00,166.00
             536.00,166.00 535.18,150.00 535.18,150.00
             535.18,150.00 536.00,138.00 536.00,138.00
             520.77,139.61 511.58,153.56 494.00,150.20
             489.66,149.36 482.62,147.78 479.04,145.30
             472.56,140.82 470.92,134.27 461.00,134.58
             444.48,135.09 433.04,121.96 420.00,120.43
             415.45,119.90 413.75,122.82 410.00,123.52
             406.87,124.11 404.10,122.33 401.00,122.30
             401.00,122.30 394.00,123.18 394.00,123.18
             388.97,123.36 382.35,121.41 378.00,119.00 Z" />
            <text filter="url(#bg-text)" class="label_pueblo" x="170" y="0" >Zona 4 - <tspan>Santana</tspan></text>
            <!-- <text class="label_pueblo" x="170" y="890" >Pos: <tspan></tspan> </text> 
            <text class="label_pueblo" x="200" y="-75" > Cantidad total <tspan></tspan> </text> -->
</a>
<a  class="state" >
  <path id="Islote" class ="zona4"
        fill="#D8A629" stroke="ivory" stroke-width="4" onclick="showTooltip(evt, id);" onchange ="hideTooltip();"
        d="M 614.00,14.00
           C 612.67,15.70 611.97,16.90 609.96,17.98
             604.85,20.70 594.11,18.83 590.00,15.00
             581.57,18.08 583.30,15.26 578.00,15.58
             575.09,15.76 572.75,17.54 569.00,17.55
             566.40,17.72 563.79,16.73 561.02,17.55
             555.79,18.78 555.09,23.59 552.37,26.78
             550.68,28.76 543.49,33.71 540.99,34.43
             537.89,35.32 532.47,34.85 529.00,35.09
             529.00,35.09 519.00,36.00 519.00,36.00
             519.00,36.00 501.00,36.00 501.00,36.00
             501.00,36.00 479.00,37.63 479.00,37.63
             479.00,37.63 468.00,37.10 468.00,37.10
             460.42,37.77 461.61,41.10 445.00,37.91
             433.27,35.65 429.54,31.04 420.00,29.00
             419.05,33.47 418.18,34.34 415.55,38.00
             408.77,47.42 405.90,45.82 397.00,51.02
             383.87,58.69 385.03,62.74 379.00,65.57
             375.48,67.22 371.72,66.81 368.00,67.17
             350.46,68.87 343.39,65.00 327.00,65.00
             328.00,68.42 331.37,76.06 334.39,77.98
             336.59,79.38 341.35,78.97 344.00,79.00
             348.77,79.06 364.94,80.46 369.00,81.96
             374.09,83.86 381.93,90.32 387.00,93.57
             387.00,93.57 409.00,108.64 409.00,108.64
             409.00,108.64 426.00,119.39 426.00,119.39
             435.38,125.78 449.41,133.94 461.00,133.58
             471.23,133.26 473.33,140.31 479.09,144.28
             482.48,146.61 497.83,150.25 502.00,149.89
             506.16,149.54 524.90,140.60 530.00,138.22
             532.53,137.04 537.05,135.33 538.30,132.75
             540.46,128.05 536.61,121.30 538.30,117.00
             539.89,113.19 543.99,111.49 545.40,107.91
             546.86,104.21 544.94,95.32 544.62,91.00
             544.46,88.91 544.32,87.18 545.75,85.43
             548.67,81.85 562.37,82.02 567.00,82.00
             567.00,82.00 579.00,81.47 579.00,81.47
             579.00,81.47 608.00,86.00 608.00,86.00
             611.56,86.04 616.76,86.30 620.00,84.99
             620.00,84.99 640.00,71.91 640.00,71.91
             647.66,67.86 658.38,65.68 667.00,65.19
             674.68,64.74 680.59,71.50 688.00,72.80
             688.00,72.80 698.00,74.26 698.00,74.26
             706.77,75.91 704.76,76.98 715.00,77.00
             715.00,77.00 750.00,77.00 750.00,77.00
             755.37,77.01 759.50,76.81 764.00,80.30
             769.29,84.40 773.78,93.24 779.00,95.00
             779.00,95.00 783.92,64.00 783.92,64.00
             784.33,61.52 786.16,54.52 784.89,52.58
             783.84,50.98 778.00,49.63 776.00,49.02
             766.14,46.02 761.44,46.00 751.00,41.11
             740.62,36.25 741.71,36.38 730.00,34.77
             730.00,34.77 720.00,34.15 720.00,34.15
             717.57,33.39 708.50,27.80 703.00,26.47
             703.00,26.47 694.00,25.71 694.00,25.71
             694.00,25.71 656.00,20.37 656.00,20.37
             650.40,19.12 644.77,14.92 634.00,13.33
             627.13,12.31 627.63,16.23 623.90,17.04
             621.40,17.59 616.80,14.88 614.00,14.00 Z" />
            <text filter="url(#bg-text)" class="label_pueblo" x="170" y="0" >Zona 4 - <tspan>Islote</tspan></text>
            <!-- <text class="label_pueblo" x="170" y="890" >Pos: <tspan></tspan> </text> 
            <text class="label_pueblo" x="200" y="-75" > Cantidad total <tspan></tspan> </text> -->
</a>
<a  class="state" >
  <path id="Cambalache" class ="zona4"
        fill="#D8A629" stroke="ivory" stroke-width="4" onclick="showTooltip(evt, id);" onchange ="hideTooltip();"
        d="M 380.00,116.00
           C 383.91,124.73 394.68,120.78 402.00,121.30
             404.73,121.49 407.23,122.92 410.00,122.47
             413.46,121.91 413.81,119.94 420.00,119.00
             418.29,113.79 415.43,113.69 411.00,110.94
             411.00,110.94 397.00,100.98 397.00,100.98
             397.00,100.98 370.00,83.48 370.00,83.48
             364.94,81.43 359.36,81.30 354.00,80.91
             341.92,80.03 343.49,79.49 331.00,81.59
             329.26,81.88 325.63,82.38 324.14,83.03
             319.94,84.85 320.00,90.72 313.83,95.30
             313.83,95.30 305.00,99.66 305.00,99.66
             301.76,101.67 298.86,104.75 295.00,105.52
             295.00,105.52 281.00,105.52 281.00,105.52
             275.56,105.83 269.91,103.47 266.00,104.44
             253.26,107.62 258.52,126.19 263.22,134.00
             264.82,136.66 266.63,138.42 269.01,140.37
             276.35,146.35 279.21,144.08 281.07,146.59
             284.15,150.03 278.00,154.45 281.07,158.59
             282.38,160.83 286.28,161.51 289.95,164.53
             292.61,166.72 300.69,178.72 301.60,182.00
             304.42,190.41 297.29,193.85 301.60,201.99
             305.04,208.99 310.73,210.99 318.00,211.00
             318.00,211.00 335.91,212.42 335.91,212.42
             339.25,212.07 339.80,209.98 344.01,209.22
             344.01,209.22 365.00,208.00 365.00,208.00
             365.00,208.00 390.00,208.00 390.00,208.00
             392.27,208.00 400.76,209.10 401.84,207.36
             402.84,205.73 400.74,201.72 400.07,200.04
             400.07,200.04 394.90,190.00 394.90,190.00
             393.45,185.95 393.12,180.80 391.11,177.00
             385.95,167.27 379.60,167.18 374.53,160.96
             372.31,158.24 370.91,155.21 369.60,152.00
             365.01,140.71 367.51,138.48 372.14,128.00
             374.63,122.37 374.96,120.04 380.00,116.00 Z" />
            <text filter="url(#bg-text)" class="label_pueblo" x="170" y="0" >Zona 4 - <tspan>Cambalache</tspan></text>
            <!-- <text class="label_pueblo" x="170" y="890" >Pos: <tspan></tspan> </text> 
            <text class="label_pueblo" x="200" y="-75" > Cantidad total <tspan></tspan> </text> -->
</a>
<a  class="state" >
  <path id="Domingo Ruiz" class ="zona3"
        fill="#093444" stroke="ivory" stroke-width="4" onclick="showTooltip(evt, id);" onchange ="hideTooltip();"
        d="M 312.00,213.00
           C 315.67,220.16 322.91,218.54 323.45,229.00
             323.64,232.61 321.20,237.39 317.00,236.96
             314.68,236.73 312.04,234.08 309.00,233.47
             304.87,232.64 301.67,235.36 303.28,238.81
             304.34,241.08 307.28,242.26 309.28,245.10
             311.66,248.49 310.79,250.95 314.27,254.41
             316.80,256.92 321.35,259.45 320.21,263.94
             318.93,269.03 312.07,267.66 308.11,270.58
             304.28,273.41 304.69,276.53 302.42,280.00
             300.76,282.52 297.44,285.20 296.66,288.00
             295.49,292.14 299.66,294.95 302.41,301.00
             302.41,301.00 307.00,311.95 307.00,311.95
             310.52,317.30 320.55,319.49 326.00,316.11
             334.49,310.85 330.87,307.15 342.00,299.84
             343.68,298.74 346.04,297.15 348.00,296.71
             351.83,295.84 354.11,298.20 353.45,302.00
             353.11,303.97 346.71,314.70 359.00,314.94
             360.33,314.96 361.74,314.85 363.00,314.42
             365.20,313.67 367.10,312.07 369.00,310.76
             377.58,304.87 375.27,306.75 379.89,298.00
             379.89,298.00 383.64,291.00 383.64,291.00
             386.06,285.24 383.81,284.23 389.19,278.00
             400.55,264.82 405.80,263.32 420.00,255.69
             424.02,253.53 432.49,250.54 433.48,245.96
             435.06,238.66 429.75,234.35 425.28,229.84
             423.29,227.83 422.42,226.50 419.96,224.81
             419.96,224.81 414.21,221.36 414.21,221.36
             410.56,218.35 409.32,213.37 404.96,211.02
             402.07,209.46 394.41,209.02 391.00,209.00
             391.00,209.00 369.00,209.00 369.00,209.00
             369.00,209.00 349.00,210.00 349.00,210.00
             338.22,210.06 341.02,213.10 335.96,213.56
             328.39,214.25 320.49,210.59 312.00,213.00 Z" />
            <text filter="url(#bg-text)" class="label_pueblo" x="170" y="0" >Zona 3 - <tspan>Domingo Ruiz</tspan></text>
            <!-- <text class="label_pueblo" x="170" y="890" >Pos: <tspan></tspan> </text> 
            <text class="label_pueblo" x="200" y="-75" > Cantidad total <tspan></tspan> </text> -->
</a>
<a  class="state" >
  <path id="Carreras" class ="zona3"
        fill="#093444" stroke="ivory" stroke-width="4" onclick="showTooltip(evt, id);" onchange ="hideTooltip();"
        d="M 371.00,314.00
           C 374.65,322.55 381.03,324.71 380.52,332.00
             379.67,343.99 370.88,347.91 364.96,357.00
             357.28,368.81 358.06,376.95 354.00,389.00
             352.87,392.35 350.67,399.35 347.78,401.31
             345.43,402.90 341.75,402.07 339.00,402.01
             336.69,401.96 331.54,401.56 330.06,403.60
             328.75,405.41 330.18,413.64 330.66,416.00
             333.47,429.79 337.47,431.33 335.00,446.00
             346.08,452.54 345.27,461.06 348.59,465.96
             355.31,475.86 370.02,477.61 373.71,487.00
             375.91,492.59 373.27,495.22 370.78,500.00
             370.78,500.00 366.61,508.00 366.61,508.00
             366.61,508.00 355.53,524.00 355.53,524.00
             350.30,533.39 353.10,538.28 352.43,544.00
             352.43,544.00 352.43,548.00 352.43,548.00
             351.71,554.80 354.72,560.19 357.69,566.00
             361.87,574.15 366.80,583.82 372.45,591.00
             375.41,594.76 379.01,600.14 384.00,600.85
             393.61,602.23 409.52,591.35 419.00,588.64
             421.93,587.80 426.07,586.26 429.00,586.40
             432.25,586.56 436.80,588.79 439.44,586.96
             440.89,585.96 442.06,582.65 442.78,581.00
             445.07,575.74 447.85,567.52 443.30,562.64
             440.18,559.28 431.41,557.97 427.00,558.32
             423.74,558.58 418.03,560.33 415.11,559.22
             412.18,558.12 411.37,555.48 409.97,553.00
             407.22,548.09 402.26,541.98 403.29,536.00
             404.46,529.19 410.87,525.49 414.36,520.91
             418.57,515.40 421.91,503.92 422.00,497.00
             422.15,483.68 424.04,480.90 419.96,467.00
             419.96,467.00 409.81,442.00 409.81,442.00
             407.65,436.20 408.35,434.66 407.42,432.00
             406.19,428.47 404.01,427.32 403.23,423.00
             403.23,423.00 402.70,416.00 402.70,416.00
             402.70,416.00 398.61,396.00 398.61,396.00
             398.61,396.00 397.53,386.00 397.53,386.00
             395.92,377.42 392.61,370.13 392.09,361.00
             391.44,349.46 397.27,345.88 395.78,337.00
             395.17,333.39 393.27,331.05 391.45,328.00
             385.69,318.37 383.06,314.59 371.00,314.00 Z" />
            <text filter="url(#bg-text)" class="label_pueblo" x="170" y="0" >Zona 3 - <tspan>Carreras</tspan></text>
            <!-- <text class="label_pueblo" x="170" y="890" >Pos: <tspan></tspan> </text> 
            <text class="label_pueblo" x="200" y="-75" > Cantidad total <tspan></tspan> </text> -->
</a>
<a  class="state" >
  <path id="Rio Arriba" class ="zona5"
        fill="#315C2B" stroke="ivory" stroke-width="4" onclick="showTooltip(evt, id);" onchange ="hideTooltip();"
        d="M 215.00,661.00
           C 218.46,666.14 228.69,668.53 227.46,676.00
             226.39,682.52 217.11,684.30 216.15,691.04
             215.43,696.10 217.84,697.91 219.28,702.00
             219.28,702.00 220.72,708.00 220.72,708.00
             221.39,709.92 222.96,712.18 223.22,714.00
             223.75,717.65 220.35,720.66 221.33,724.90
             222.19,728.61 225.47,728.82 227.28,733.04
             227.28,733.04 229.84,744.00 229.84,744.00
             231.40,748.37 234.13,751.16 236.37,755.00
             239.22,759.87 239.19,763.00 247.00,762.48
             247.00,762.48 268.00,762.48 268.00,762.48
             268.00,762.48 275.00,758.58 275.00,758.58
             277.60,757.59 280.23,758.06 283.91,755.35
             287.40,752.78 292.95,745.19 299.00,742.17
             304.77,739.28 312.84,740.65 318.00,739.66
             322.61,738.78 325.11,736.18 329.00,735.41
             334.20,734.37 339.86,736.86 345.00,737.32
             347.97,737.57 349.68,736.58 352.00,737.32
             355.66,738.55 357.45,742.55 362.00,742.14
             362.00,742.14 373.00,738.77 373.00,738.77
             376.56,738.10 378.29,739.12 380.96,738.77
             384.96,738.16 385.85,735.45 389.04,735.04
             389.04,735.04 396.00,735.89 396.00,735.89
             398.34,735.89 403.72,734.35 406.00,733.51
             412.85,730.99 414.81,727.32 425.00,725.13
             432.33,723.55 437.49,728.47 444.00,730.94
             452.68,734.22 455.01,732.09 458.96,734.17
             462.97,736.30 463.74,740.32 467.10,741.22
             469.61,741.89 473.57,739.91 476.00,739.08
             482.21,736.95 489.91,736.08 494.83,731.66
             502.67,724.63 501.86,721.58 505.43,714.00
             506.42,711.90 508.43,709.36 508.39,707.00
             508.34,704.27 505.58,701.41 504.27,699.00
             502.75,696.21 501.68,692.13 501.09,689.00
             501.09,689.00 498.68,672.00 498.68,672.00
             498.68,672.00 494.81,653.00 494.81,653.00
             494.81,653.00 493.63,645.00 493.63,645.00
             493.63,645.00 490.60,636.00 490.60,636.00
             490.60,636.00 489.10,628.00 489.10,628.00
             489.10,628.00 486.61,620.00 486.61,620.00
             486.61,620.00 484.00,602.00 484.00,602.00
             483.72,599.99 483.22,595.08 481.99,593.60
             479.85,591.02 470.59,592.98 467.00,593.00
             467.00,593.00 462.00,593.00 462.00,593.00
             457.16,592.94 444.79,591.41 440.00,590.34
             436.41,589.53 430.34,587.21 427.00,587.56
             419.38,588.35 401.75,597.70 393.00,600.76
             393.00,600.76 377.00,604.24 377.00,604.24
             377.00,604.24 348.00,616.40 348.00,616.40
             348.00,616.40 307.00,631.00 307.00,631.00
             307.00,631.00 279.00,639.00 279.00,639.00
             279.00,639.00 257.00,647.56 257.00,647.56
             243.00,651.75 228.13,654.28 215.00,661.00 Z" />
            <text filter="url(#bg-text)" class="label_pueblo" x="170" y="0" >Zona 5 - <tspan>Rio Arriba</tspan></text>
            <!-- <text class="label_pueblo" x="170" y="890" >Pos: <tspan>9</tspan> </text> 
            <text class="label_pueblo" x="200" y="-75" > Cantidad total <tspan></tspan> </text> -->
</a>
<a  class="state" >
  <path id="Hato Viejo" class ="zona2"
        fill="#CD4631" stroke="ivory" stroke-width="4" onclick="showTooltip(evt, id);" onchange ="hideTooltip();"
        d="M 297.00,297.00
           C 296.08,300.93 293.60,304.98 294.24,308.96
             295.20,314.91 300.56,312.96 299.70,319.02
             298.96,324.16 296.17,326.39 294.88,330.00
             294.88,330.00 292.02,344.00 292.02,344.00
             292.02,344.00 289.83,372.00 289.83,372.00
             289.83,372.00 285.17,422.00 285.17,422.00
             285.17,422.00 281.17,458.00 281.17,458.00
             280.76,462.27 280.60,471.38 278.83,475.00
             278.83,475.00 267.42,490.00 267.42,490.00
             267.42,490.00 244.42,519.00 244.42,519.00
             227.74,539.36 213.78,559.70 201.52,583.00
             201.52,583.00 197.45,591.00 197.45,591.00
             197.45,591.00 194.09,600.00 194.09,600.00
             194.09,600.00 188.12,610.00 188.12,610.00
             186.49,613.15 183.82,617.42 184.75,621.00
             186.15,626.36 194.18,634.69 197.79,639.00
             197.79,639.00 205.00,650.00 205.00,650.00
             207.15,653.23 209.87,657.89 214.00,658.59
             216.94,659.09 221.22,657.07 224.00,656.05
             224.00,656.05 242.00,650.15 242.00,650.15
             242.00,650.15 259.00,645.65 259.00,645.65
             259.00,645.65 275.00,639.20 275.00,639.20
             275.00,639.20 289.00,634.52 289.00,634.52
             289.00,634.52 304.00,630.57 304.00,630.57
             304.00,630.57 325.00,623.86 325.00,623.86
             325.00,623.86 363.00,608.80 363.00,608.80
             365.87,607.64 375.65,604.12 376.85,601.61
             378.77,597.57 371.45,592.29 367.17,585.00
             362.61,577.24 351.90,559.45 351.43,551.00
             351.43,551.00 351.43,541.00 351.43,541.00
             350.25,521.47 359.71,519.86 367.73,504.00
             370.32,498.89 374.90,492.72 372.70,487.00
             369.81,479.48 354.46,474.83 348.43,466.96
             343.81,460.94 344.85,448.48 331.12,447.00
             337.61,437.23 333.77,433.28 331.12,423.00
             329.55,416.16 328.15,408.03 328.00,401.00
             328.00,401.00 340.00,401.00 340.00,401.00
             342.17,401.00 345.68,401.23 347.50,399.98
             349.55,398.57 350.86,394.31 351.66,392.00
             351.66,392.00 358.06,369.00 358.06,369.00
             362.50,357.31 366.14,354.16 373.93,345.00
             377.34,340.99 381.05,333.39 379.11,328.00
             377.58,323.76 371.53,317.22 367.00,316.28
             362.29,315.29 356.23,317.39 352.31,313.57
             348.58,309.69 351.34,306.04 352.31,303.00
             352.72,301.08 353.05,298.56 350.69,297.70
             347.77,296.65 343.25,299.99 341.00,301.59
             332.42,307.71 331.91,317.03 322.00,318.71
             319.76,319.10 317.18,318.66 315.00,318.10
             304.46,315.40 303.69,305.27 299.00,297.00
             299.00,297.00 297.00,297.00 297.00,297.00 Z" />
            <text filter="url(#bg-text)" class="label_pueblo" x="170" y="0" >Zona 2 - <tspan>Hato Viejo</tspan></text>
            <!-- <text class="label_pueblo" x="170" y="890" >Pos: <tspan>34</tspan> </text> 
            <text class="label_pueblo" x="200" y="-75" > Cantidad total <tspan></tspan> </text> -->
</a>
<a  class="state" >
  <path id="Tanama" class ="zona2"
        fill="#CD4631" stroke="ivory" stroke-width="4" onclick="showTooltip(evt, id);" onchange ="hideTooltip();"
        d="M 221.00,155.00
           C 221.00,155.00 214.37,145.74 214.37,145.74
             211.42,143.20 205.63,143.30 203.89,147.15
             203.89,147.15 201.21,162.00 201.21,162.00
             201.21,162.00 201.21,171.00 201.21,171.00
             201.14,178.83 205.57,184.40 208.95,191.00
             211.58,196.13 211.38,198.22 213.09,203.00
             215.91,210.86 219.22,215.87 218.87,225.00
             218.44,236.11 209.63,235.73 206.57,244.00
             202.67,254.54 207.95,258.00 208.80,267.00
             209.40,273.30 204.10,283.75 204.08,291.00
             204.05,298.38 209.12,308.82 208.89,313.00
             208.89,313.00 196.25,357.00 196.25,357.00
             196.25,357.00 193.04,366.00 193.04,366.00
             193.04,366.00 188.36,388.00 188.36,388.00
             188.43,392.48 191.44,395.89 190.53,399.98
             189.53,404.44 186.04,405.63 182.00,405.96
             179.32,406.18 176.12,405.72 175.60,409.15
             175.60,409.15 175.60,415.00 175.60,415.00
             175.45,418.55 172.86,422.54 175.60,425.02
             178.72,427.85 189.35,428.49 190.09,433.07
             190.54,435.83 187.39,437.31 187.27,441.04
             187.15,444.76 190.82,449.70 190.59,454.00
             190.38,458.02 185.21,464.28 184.99,467.96
             184.87,469.98 185.74,470.97 186.99,472.41
             192.42,478.63 196.74,476.01 204.00,476.00
             204.00,476.00 262.00,475.00 262.00,475.00
             264.40,474.97 275.95,474.13 277.40,472.98
             279.50,471.31 278.97,465.67 279.28,463.00
             279.28,463.00 282.34,437.00 282.34,437.00
             282.34,437.00 284.17,417.00 284.17,417.00
             284.17,417.00 289.17,360.00 289.17,360.00
             289.17,360.00 290.84,343.42 290.84,343.42
             290.84,343.42 292.62,337.00 292.62,337.00
             292.62,337.00 293.51,331.00 293.51,331.00
             294.77,326.78 298.31,323.93 298.41,319.05
             298.52,314.20 294.13,314.84 293.24,309.00
             292.52,304.29 295.09,301.94 295.71,298.00
             296.32,294.17 294.61,291.56 295.11,289.00
             295.77,285.62 299.52,282.88 301.42,280.00
             303.53,276.79 303.15,274.31 306.23,271.22
             310.98,266.46 316.96,268.24 318.89,264.69
             321.27,260.30 315.62,257.06 313.22,254.63
             309.47,250.83 310.63,248.46 308.27,245.21
             306.51,242.79 303.39,241.47 302.28,238.90
             300.48,234.75 304.92,231.27 309.00,232.10
             312.31,232.98 319.50,240.08 322.17,232.10
             322.69,230.40 322.48,228.59 322.17,227.00
             320.69,219.61 316.89,220.02 313.10,216.70
             313.10,216.70 301.65,203.96 301.65,203.96
             295.54,195.43 303.51,190.07 300.28,181.00
             299.21,178.00 291.48,166.96 288.90,164.99
             285.72,162.56 280.73,161.36 279.39,157.90
             278.30,155.11 280.65,152.20 281.00,146.00
             265.98,145.25 257.89,130.70 257.09,117.00
             256.89,113.55 257.55,110.39 258.00,107.00
             251.06,109.06 250.67,113.09 245.91,117.91
             241.44,122.43 232.32,129.13 229.01,134.01
             225.75,138.84 223.26,149.11 221.00,155.00 Z" />
            <text filter="url(#bg-text)" class="label_pueblo" x="170" y="0" >Zona 2 - <tspan>Tanama</tspan></text>
            <!-- <text class="label_pueblo" x="170" y="890" >Pos: <tspan>34</tspan> </text> 
            <text class="label_pueblo" x="200" y="-75" > Cantidad total <tspan></tspan> </text> -->
</a>
<a  class="state" >
  <path id="Casco Urbano" class= "zona1"
        fill="#81ADC8" stroke="ivory" stroke-width="4" onclick="showTooltip(evt, id);" onchange ="hideTooltip();"
        d="M 304.00,67.00
           C 309.89,67.10 310.62,71.91 310.22,77.00
             309.53,85.57 303.72,91.56 297.00,96.24
             292.86,99.12 289.52,99.68 287.00,104.00
             300.17,105.73 296.00,103.52 306.00,97.92
             309.27,96.08 311.50,96.44 315.94,91.95
             320.18,87.66 319.64,85.50 321.58,83.56
             325.06,80.07 332.08,82.44 331.21,76.94
             330.69,73.71 323.76,62.54 320.90,61.04
             318.87,59.97 317.14,60.34 315.00,60.51
             308.82,60.98 306.93,60.96 304.00,67.00 Z
           M 128.00,92.00
           C 123.79,101.16 128.41,101.34 136.00,102.80
             136.00,102.80 158.98,106.88 158.98,106.88
             165.67,109.71 162.45,114.25 166.31,116.49
             169.58,118.38 176.80,117.18 177.38,120.28
             177.82,122.64 173.60,125.40 172.00,126.65
             165.37,131.84 159.89,138.00 154.00,144.00
             151.69,146.35 145.73,151.61 150.32,154.69
             155.88,158.42 163.53,155.70 169.00,153.68
             169.00,153.68 187.00,147.92 187.00,147.92
             193.42,145.73 197.97,143.18 205.00,143.01
             207.62,142.95 211.50,142.83 213.79,144.17
             216.15,145.57 217.64,148.68 219.00,151.00
             219.00,151.00 221.00,151.00 221.00,151.00
             223.38,145.42 225.10,137.80 228.72,133.04
             228.72,133.04 246.79,115.96 246.79,115.96
             252.73,109.36 253.79,103.36 264.00,103.00
             264.00,103.00 260.86,99.31 260.86,99.31
             260.86,99.31 252.00,97.83 252.00,97.83
             252.00,97.83 234.00,95.01 234.00,95.01
             234.00,95.01 221.00,89.23 221.00,89.23
             221.00,89.23 204.00,93.52 204.00,93.52
             204.00,93.52 186.00,93.52 186.00,93.52
             186.00,93.52 174.00,98.88 174.00,98.88
             174.00,98.88 155.00,96.49 155.00,96.49
             155.00,96.49 143.00,96.49 143.00,96.49
             143.00,96.49 128.00,92.00 128.00,92.00 Z" />
            <text filter="url(#bg-text)" class="label_pueblo" x="170" y="0" >Zona 1 - <tspan>Casco Urbano</tspan></text>
            <!-- <text class="label_pueblo" x="170" y="890" >Pos: <tspan></tspan> </text> 
            <text class="label_pueblo" x="200" y="-75" > Cantidad total <tspan></tspan> </text> -->
</a>
<a  class="state" >
  <path id="Esperanza" class ="zona2"
        fill="#CD4631" stroke="ivory" stroke-width="4" onclick="showTooltip(evt, id);" onchange ="hideTooltip();"
        d="M 16.00,720.00
           C 24.97,718.53 21.08,714.18 25.43,710.78
             27.60,709.08 30.49,709.73 33.00,710.00
             32.30,704.30 32.69,692.94 40.02,691.80
             40.02,691.80 48.00,691.80 48.00,691.80
             48.96,680.11 56.77,686.64 65.87,678.52
             68.69,676.01 69.64,673.42 72.13,672.02
             75.41,670.18 78.77,671.97 82.96,669.26
             86.09,667.25 87.36,664.32 91.04,662.12
             91.04,662.12 114.00,652.05 114.00,652.05
             114.00,652.05 126.00,644.81 126.00,644.81
             132.67,641.48 135.15,642.49 138.72,640.16
             140.79,638.81 145.82,634.01 147.16,631.96
             150.17,627.36 150.57,622.39 157.00,619.79
             162.27,617.66 162.73,623.83 167.05,625.96
             170.78,627.79 176.79,624.00 179.54,621.51
             181.92,619.35 191.40,603.33 192.96,600.00
             192.96,600.00 197.27,589.00 197.27,589.00
             197.27,589.00 216.41,556.00 216.41,556.00
             216.41,556.00 220.64,548.00 220.64,548.00
             220.64,548.00 230.68,535.00 230.68,535.00
             230.68,535.00 261.79,496.00 261.79,496.00
             266.02,490.61 273.41,482.42 275.00,476.04
             275.00,476.04 260.00,476.04 260.00,476.04
             260.00,476.04 248.00,477.00 248.00,477.00
             248.00,477.00 209.00,477.00 209.00,477.00
             209.00,477.00 193.00,477.90 193.00,477.90
             193.00,477.90 166.00,471.80 166.00,471.80
             166.00,471.80 137.00,466.34 137.00,466.34
             137.00,466.34 97.00,456.88 97.00,456.88
             97.00,456.88 70.00,451.33 70.00,451.33
             70.00,451.33 47.00,446.08 47.00,446.08
             43.65,445.51 33.07,442.37 30.56,444.06
             27.73,445.97 27.17,460.25 26.97,464.00
             26.97,464.00 22.83,505.00 22.83,505.00
             22.83,505.00 21.00,523.00 21.00,523.00
             21.00,523.00 21.00,545.00 21.00,545.00
             21.00,545.00 20.00,561.00 20.00,561.00
             20.00,561.00 20.00,579.00 20.00,579.00
             20.00,579.00 19.00,596.00 19.00,596.00
             19.00,596.00 19.00,632.00 19.00,632.00
             19.00,632.00 18.00,649.00 18.00,649.00
             18.00,649.00 18.00,674.00 18.00,674.00
             18.00,674.00 17.00,690.00 17.00,690.00
             17.00,690.00 17.00,705.00 17.00,705.00
             17.00,705.00 16.00,720.00 16.00,720.00 Z" />
            <text filter="url(#bg-text)" class="label_pueblo" x="170" y="0" >Zona 2 - <tspan>Esperanza</tspan></text>
            <!-- <text class="label_pueblo" x="170" y="890" >Pos: <tspan></tspan> </text> 
            <text class="label_pueblo" x="200" y="-75" > Cantidad total <tspan></tspan> </text> -->
</a>
<a  class="state" >
  <path id="Dominguito" class ="zona2"
        fill="#CD4631" stroke="ivory" stroke-width="4" onclick="showTooltip(evt, id);" onchange ="hideTooltip();"
        d="M 26.00,307.00
           C 25.46,313.61 24.72,315.77 25.04,323.00
             25.04,323.00 26.00,334.00 26.00,334.00
             26.21,352.68 16.80,362.84 17.00,381.00
             17.13,391.90 22.38,405.98 24.39,417.00
             25.34,422.28 26.65,434.52 29.30,438.78
             31.33,442.04 35.53,442.51 39.00,443.20
             39.00,443.20 64.00,448.34 64.00,448.34
             64.00,448.34 101.00,456.42 101.00,456.42
             101.00,456.42 151.00,467.41 151.00,467.41
             159.11,468.78 177.17,474.02 184.00,473.00
             182.34,464.06 188.45,461.43 189.40,455.00
             190.15,449.92 185.76,444.17 185.84,441.01
             185.91,438.16 188.40,436.45 190.00,432.00
             186.53,430.35 174.82,427.05 173.64,423.85
             172.64,421.14 174.53,417.96 174.69,415.00
             174.87,411.67 172.99,408.93 175.42,406.60
             178.74,403.41 187.85,407.09 189.53,399.95
             190.62,395.30 186.50,391.93 187.31,385.00
             187.31,385.00 197.86,347.00 197.86,347.00
             197.86,347.00 204.42,326.00 204.42,326.00
             205.13,323.39 206.50,319.92 204.96,317.39
             203.35,314.72 196.04,312.21 193.00,310.74
             181.38,305.11 171.53,298.16 158.00,298.15
             158.00,298.15 144.00,298.15 144.00,298.15
             144.00,298.15 132.00,300.66 132.00,300.66
             126.04,300.72 119.43,297.38 116.00,297.71
             113.51,297.95 105.69,302.72 98.00,303.79
             91.21,304.74 86.22,302.66 80.00,303.09
             70.89,303.71 71.01,306.98 59.00,307.00
             59.00,307.00 26.00,307.00 26.00,307.00 Z" />
            <text filter="url(#bg-text)" class="label_pueblo" x="170" y="0" >Zona 2 - <tspan>Dominguito</tspan></text>
            <!-- <text class="label_pueblo" x="170" y="890" >Pos: <tspan></tspan> </text> 
            <text class="label_pueblo" x="200" y="-75" > Cantidad total <tspan></tspan> </text> -->
</a>
<a  class="state" >
  <path id="Hato Arriba" class ="zona2"
        fill="#CD4631" stroke="ivory" stroke-width="4" onclick="showTooltip(evt, id);" onchange ="hideTooltip();"
        d="M 200.00,186.63
           C 191.47,189.23 183.89,190.30 175.00,190.91
             175.00,190.91 165.00,191.47 165.00,191.47
             165.00,191.47 150.00,196.72 150.00,196.72
             146.02,197.92 144.78,197.03 142.00,197.78
             142.00,197.78 134.00,201.44 134.00,201.44
             134.00,201.44 113.00,207.08 113.00,207.08
             108.42,208.12 100.95,205.87 98.00,206.40
             92.98,207.31 88.53,214.74 83.00,217.17
             80.37,218.17 69.11,216.96 65.00,217.17
             61.71,217.04 56.70,217.96 54.00,217.17
             46.25,215.93 51.01,213.89 37.00,212.97
             34.14,212.71 28.96,211.26 26.56,212.97
             24.21,214.75 23.44,224.42 22.34,228.00
             20.28,234.66 13.46,251.09 14.34,257.00
             15.63,265.63 20.50,264.68 23.39,280.00
             23.39,280.00 25.96,295.00 25.96,295.00
             26.09,297.77 25.49,302.20 27.60,304.26
             29.71,306.32 34.23,306.00 37.00,305.87
             37.00,305.87 65.00,305.87 65.00,305.87
             68.87,305.06 73.15,302.34 80.00,301.78
             86.13,301.28 91.75,303.65 98.00,302.79
             105.67,301.74 113.50,296.95 116.00,296.71
             119.44,296.38 126.23,299.78 132.00,299.65
             132.00,299.65 142.00,297.46 142.00,297.46
             142.00,297.46 153.00,296.51 153.00,296.51
             168.62,295.52 178.60,303.15 192.00,309.14
             194.90,310.43 203.87,315.55 206.38,313.30
             208.69,311.23 206.57,307.31 205.79,305.00
             203.51,298.22 202.45,292.07 203.80,285.00
             203.80,285.00 207.78,270.00 207.78,270.00
             208.71,261.82 201.72,258.25 205.06,246.00
             207.37,237.49 213.22,236.21 216.06,231.90
             218.94,227.05 217.74,218.27 216.06,213.00
             216.06,213.00 212.06,203.00 212.06,203.00
             209.59,196.45 209.14,185.59 200.00,186.63 Z" />
            <text filter="url(#bg-text)" class="label_pueblo" x="170" y="0" >Zona 2 - <tspan>Hato Arriba</tspan></text>
            <!-- <text class="label_pueblo" x="170" y="890" >Pos: <tspan></tspan> </text> 
            <text class="label_pueblo" x="200" y="-75" > Cantidad total <tspan></tspan> </text> -->
</a>
<a  class="state" >
  <path id="Hato Abajo" class="zona1" 
        fill="#81ADC8" stroke="ivory" stroke-width="4" onclick="showTooltip(evt, id);" onchange ="hideTooltip();"
        d="M 36.00,58.00
           C 33.42,62.34 26.57,74.55 25.48,79.00
             24.79,82.01 25.79,84.96 25.48,88.00
             25.48,88.00 23.29,98.00 23.29,98.00
             23.29,98.00 23.29,107.00 23.29,107.00
             23.18,111.49 20.79,114.14 21.11,120.00
             21.11,120.00 23.70,132.00 23.70,132.00
             23.70,132.00 24.55,143.91 24.55,143.91
             26.06,149.27 27.94,146.78 28.00,156.00
             28.00,156.00 28.00,175.00 28.00,175.00
             28.00,175.00 26.06,193.00 26.06,193.00
             26.06,193.00 26.06,201.00 26.06,201.00
             25.87,203.18 24.84,207.71 26.06,209.40
             27.50,211.39 36.44,211.89 39.00,211.99
             48.90,212.36 47.50,215.17 54.00,216.28
             56.70,216.96 61.71,216.04 65.00,216.28
             65.00,216.28 82.00,216.28 82.00,216.28
             87.22,214.73 93.52,206.50 97.00,205.15
             99.71,204.10 102.37,205.82 107.00,205.98
             113.97,206.22 119.40,204.08 126.00,202.20
             126.00,202.20 135.00,200.01 135.00,200.01
             135.00,200.01 142.00,196.70 142.00,196.70
             142.00,196.70 151.00,195.10 151.00,195.10
             151.00,195.10 162.00,191.04 162.00,191.04
             171.59,188.68 192.43,190.16 199.95,184.92
             204.78,181.42 200.15,178.67 199.95,170.00
             199.95,170.00 199.95,164.00 199.95,164.00
             200.13,156.25 202.00,158.42 202.00,145.00
             202.00,145.00 173.00,153.42 173.00,153.42
             173.00,153.42 159.00,157.73 159.00,157.73
             159.00,157.73 145.00,154.00 145.00,154.00
             148.03,148.81 160.45,135.77 165.17,131.30
             169.89,126.83 172.95,126.38 176.00,120.00
             172.71,119.41 166.81,119.09 164.60,116.57
             161.96,113.57 164.11,110.11 158.94,108.03
             158.94,108.03 127.18,101.99 127.18,101.99
             122.37,98.84 127.33,93.47 122.71,90.65
             122.71,90.65 109.09,85.64 109.09,85.64
             105.00,84.66 105.00,85.55 100.00,83.41
             100.00,83.41 83.00,76.09 83.00,76.09
             83.00,76.09 75.00,71.87 75.00,71.87
             75.00,71.87 68.00,69.87 68.00,69.87
             68.00,69.87 61.00,66.68 61.00,66.68
             61.00,66.68 48.00,62.99 48.00,62.99
             48.00,62.99 36.00,58.00 36.00,58.00 Z" />
            <text filter="url(#bg-text)"  class="label_pueblo" x="170" y="0" >Zona 1 - <tspan>Hato Abajo</tspan></text>
            <!-- <text class="label_pueblo" x="170" y="890" >Pos: <tspan></tspan> </text> 
            <text class="label_pueblo" x="200" y="-75" > Cantidad total <tspan></tspan> </text> -->
</a>
          
        
         

          <style>                                
            svg .zona1:hover {
            fill: ivory;
            cursor: pointer;
            webkit-transition: all .1s;
            }
            svg .zona2:hover {
            fill: ivory;
            cursor: pointer;
            webkit-transition: all .1s;
            }
            svg .zona3:hover {
            fill: ivory;
            cursor: pointer;
            webkit-transition: all .1s;
            }
            svg .zona4:hover {
            fill: ivory;
            cursor: pointer;
            webkit-transition: all .1s;
            }
            svg .zona5:hover{
            fill: ivory;
            cursor: pointer;
            webkit-transition: all .1s;
            }
            svg .label_pueblo {
                display: none;
                font-family: Arial;
                font-size: 50px;
                line-height: 16px;
                font-weight: bold;
            }
            svg .state:hover .label_pueblo {
                display: block;
            }
            svg .state:active .label_pueblo {
                display: block;
            }
            tspan { font: bold 50px sans-serif; fill: #CD4631; }
            text { background-color:#093444;}
          </style>

      <defs>
        <filter x="0" y="0" width="1" height="1" id="bg-text">
          <feFlood flood-color="#093444"/>
          <feComposite in="SourceGraphic" operator="xor" />
        </filter>
      </defs>



          <script>
            function showTooltip(evt, text) {
            let tooltip = document.getElementById("tooltip");
          

            tooltip.style.display = "block";
            tooltip.style.left = evt.pageX + 10 + 'px';
            tooltip.style.top = evt.pageY + 10 + 'px';
          }

          function hideTooltip() {
            var tooltip = document.getElementById("tooltip");
            tooltip.style.display = "none";
          }
          </script>    




  </svg>



